<svg version="1.1" id="Layer_1" xmlns="http://www.w3.org/2000/svg" xmlns:xlink="http://www.w3.org/1999/xlink" x="0px" y="0px"
	 width="100%" viewBox="0 0 633 633" enable-background="new 0 0 633 633" xml:space="preserve">
<path fill="#5A3DB7" opacity="1.000000" stroke="none" 
	d="
M307.000000,634.000000 
	C204.666687,634.000000 102.833366,634.000000 1.000041,634.000000 
	C1.000027,423.000061 1.000027,212.000107 1.000014,1.000126 
	C211.999893,1.000084 422.999786,1.000084 633.999756,1.000042 
	C633.999878,211.999878 633.999878,422.999756 633.999939,633.999817 
	C525.166687,634.000000 416.333344,634.000000 307.000000,634.000000 
M110.978783,263.036377 
	C110.974449,306.851013 110.968674,350.665649 110.970467,394.480286 
	C110.970551,396.478699 110.926682,398.486511 111.093163,400.474030 
	C112.413391,416.236145 127.394028,426.571350 142.087906,421.893921 
	C152.695618,418.517212 158.901215,409.241577 158.913361,396.367645 
	C158.954391,352.886200 158.931381,309.404694 158.917191,265.923218 
	C158.916763,264.598785 158.743652,263.274445 159.625656,261.822479 
	C171.613037,261.788940 183.604828,261.947968 195.586655,261.672516 
	C210.209869,261.336365 220.692017,251.015060 220.734680,237.347824 
	C220.773849,224.795425 210.581345,214.003799 197.607895,213.939453 
	C155.151703,213.728897 112.693771,213.846130 70.236572,213.888611 
	C63.137672,213.895706 57.267612,216.974640 52.846035,222.330627 
	C46.589550,229.909256 45.199440,238.634995 49.268150,247.567215 
	C53.423317,256.689240 61.084808,261.416748 71.090790,261.674774 
	C84.395645,262.017883 97.710129,261.987946 110.978783,263.036377 
M403.029022,237.631653 
	C403.042267,290.881348 403.055542,344.131073 403.141968,398.202667 
	C403.941162,414.822174 413.480652,423.883270 429.930969,423.799408 
	C447.255157,423.711121 464.580658,423.813324 481.903809,423.646576 
	C486.539948,423.601959 491.229218,423.216583 495.791992,422.410004 
	C516.825073,418.692078 535.197327,409.444031 550.386230,394.462036 
	C572.841492,372.312531 584.169861,345.569611 582.353577,313.025452 
	C582.397583,312.363770 582.510254,311.698456 582.475830,311.040894 
	C579.810730,260.122711 537.989563,217.106781 486.266602,212.475327 
	C477.507355,212.595062 468.748077,212.714783 459.057922,212.937164 
	C448.793884,212.954102 438.483215,212.396576 428.284912,213.223862 
	C422.972809,213.654785 417.439850,215.794510 412.755585,218.472443 
	C406.088379,222.284027 404.308197,229.494659 403.029022,237.631653 
M223.814774,312.508118 
	C223.576752,315.984283 222.947876,319.484772 223.162201,322.932831 
	C224.961670,351.884094 235.927979,376.679657 257.445709,396.385040 
	C273.961792,411.510040 293.268433,421.600586 315.747223,423.027069 
	C335.986145,424.311401 356.358093,423.684784 376.669006,423.547760 
	C383.758545,423.499939 390.528717,421.519623 395.581543,415.988831 
	C402.697571,408.199738 404.217743,399.082062 400.132904,389.609589 
	C396.067139,380.181213 388.095062,375.611053 377.898438,375.508789 
	C361.077240,375.340057 344.252411,375.557648 327.430511,375.428558 
	C312.448700,375.313629 299.657715,369.839966 288.808472,359.448425 
	C275.553467,346.752563 270.500885,331.041138 271.288361,312.387756 
	C271.401215,311.732056 271.537445,311.079437 271.623566,310.420258 
	C275.374451,281.693268 299.223114,260.722626 328.162964,260.713898 
	C343.652649,260.709229 359.142517,260.748291 374.631897,260.679718 
	C377.447021,260.667236 380.317413,260.506348 383.064453,259.939697 
	C394.576538,257.565002 402.782928,247.015686 402.033997,235.808350 
	C401.181427,223.050079 392.344513,213.661835 379.758087,213.308105 
	C362.118896,212.812378 344.447845,212.566483 326.815430,213.076874 
	C317.753479,213.339203 308.433075,214.406708 299.768616,216.948334 
	C265.747833,226.928009 242.251770,249.010773 229.755203,282.043640 
	C226.242767,291.328278 225.714661,301.741882 223.814774,312.508118 
z"/>
<path fill="#E78735" opacity="1.000000" stroke="none" 
	d="
M271.008423,313.126068 
	C270.500885,331.041138 275.553467,346.752563 288.808472,359.448425 
	C299.657715,369.839966 312.448700,375.313629 327.430511,375.428558 
	C344.252411,375.557648 361.077240,375.340057 377.898438,375.508789 
	C388.095062,375.611053 396.067139,380.181213 400.132904,389.609589 
	C404.217743,399.082062 402.697571,408.199738 395.581543,415.988831 
	C390.528717,421.519623 383.758545,423.499939 376.669006,423.547760 
	C356.358093,423.684784 335.986145,424.311401 315.747223,423.027069 
	C293.268433,421.600586 273.961792,411.510040 257.445709,396.385040 
	C235.927979,376.679657 224.961670,351.884094 223.162201,322.932831 
	C222.947876,319.484772 223.576752,315.984283 223.930237,311.765076 
	C229.711044,296.268524 243.006393,292.442474 252.898026,294.996582 
	C262.484192,297.471802 267.896393,304.160858 271.008423,313.126068 
z"/>
<path fill="#D6305B" opacity="1.000000" stroke="none" 
	d="
M582.298462,313.709229 
	C584.169861,345.569611 572.841492,372.312531 550.386230,394.462036 
	C535.197327,409.444031 516.825073,418.692078 495.791992,422.410004 
	C491.229218,423.216583 486.539948,423.601959 481.903809,423.646576 
	C464.580658,423.813324 447.255157,423.711121 429.930969,423.799408 
	C413.480652,423.883270 403.941162,414.822174 403.321991,397.458557 
	C407.390503,381.902496 415.208740,375.891235 430.621826,375.858826 
	C437.416199,375.844543 444.210602,375.825439 451.472534,375.864227 
	C460.600037,375.937317 469.260590,376.029938 477.919769,375.957001 
	C497.862366,375.789001 513.209045,367.048004 524.868347,351.059113 
	C533.384277,339.380768 534.094299,325.830475 535.352112,312.089111 
	C540.816650,301.233826 548.810730,294.842133 561.175293,296.149567 
	C571.914307,297.285187 578.955322,303.406403 582.298462,313.709229 
z"/>
<path fill="#01ADA8" opacity="1.000000" stroke="none" 
	d="
M582.326050,313.367340 
	C578.955322,303.406403 571.914307,297.285187 561.175293,296.149567 
	C548.810730,294.842133 540.816650,301.233826 535.060242,311.805115 
	C529.526306,284.176239 513.419189,266.190826 487.257294,261.814178 
	C475.425751,259.834930 463.016357,261.309784 450.410370,261.178040 
	C442.506714,261.114594 435.056396,261.262726 427.618256,261.026733 
	C416.359680,260.669525 407.441803,253.765045 404.495361,243.365356 
	C403.871368,241.162842 403.540558,238.877228 403.074646,236.629913 
	C404.308197,229.494659 406.088379,222.284027 412.755585,218.472443 
	C417.439850,215.794510 422.972809,213.654785 428.284912,213.223862 
	C438.483215,212.396576 448.793884,212.954102 459.992126,212.938965 
	C469.620697,212.905350 478.315033,212.869919 487.009399,212.834473 
	C537.989563,217.106781 579.810730,260.122711 582.475830,311.040894 
	C582.510254,311.698456 582.397583,312.363770 582.326050,313.367340 
z"/>
<path fill="#71AEBE" opacity="1.000000" stroke="none" 
	d="
M271.148376,312.756897 
	C267.896393,304.160858 262.484192,297.471802 252.898026,294.996582 
	C243.006393,292.442474 229.711044,296.268524 223.931702,311.329834 
	C225.714661,301.741882 226.242767,291.328278 229.755203,282.043640 
	C242.251770,249.010773 265.747833,226.928009 299.768616,216.948334 
	C308.433075,214.406708 317.753479,213.339203 326.815430,213.076874 
	C344.447845,212.566483 362.118896,212.812378 379.758087,213.308105 
	C392.344513,213.661835 401.181427,223.050079 402.033997,235.808350 
	C402.782928,247.015686 394.576538,257.565002 383.064453,259.939697 
	C380.317413,260.506348 377.447021,260.667236 374.631897,260.679718 
	C359.142517,260.748291 343.652649,260.709229 328.162964,260.713898 
	C299.223114,260.722626 275.374451,281.693268 271.623566,310.420258 
	C271.537445,311.079437 271.401215,311.732056 271.148376,312.756897 
z"/>
<path fill="#71AFBE" opacity="1.000000" stroke="none" 
	d="
M111.020477,262.118256 
	C97.710129,261.987946 84.395645,262.017883 71.090790,261.674774 
	C61.084808,261.416748 53.423317,256.689240 49.268150,247.567215 
	C45.199440,238.634995 46.589550,229.909256 52.846035,222.330627 
	C57.267612,216.974640 63.137672,213.895706 70.236572,213.888611 
	C112.693771,213.846130 155.151703,213.728897 197.607895,213.939453 
	C210.581345,214.003799 220.773849,224.795425 220.734680,237.347824 
	C220.692017,251.015060 210.209869,261.336365 195.586655,261.672516 
	C183.604828,261.947968 171.613037,261.788940 158.697723,261.908386 
	C142.186691,262.035645 126.603584,262.076935 111.020477,262.118256 
z"/>
<path fill="#E78734" opacity="1.000000" stroke="none" 
	d="
M110.999634,262.577332 
	C126.603584,262.076935 142.186691,262.035645 158.210419,261.972168 
	C158.743652,263.274445 158.916763,264.598785 158.917191,265.923218 
	C158.931381,309.404694 158.954391,352.886200 158.913361,396.367645 
	C158.901215,409.241577 152.695618,418.517212 142.087906,421.893921 
	C127.394028,426.571350 112.413391,416.236145 111.093163,400.474030 
	C110.926682,398.486511 110.970551,396.478699 110.970467,394.480286 
	C110.968674,350.665649 110.974449,306.851013 110.999634,262.577332 
z"/>
<path fill="#7C5E93" opacity="1.000000" stroke="none" 
	d="
M403.051819,237.130783 
	C403.540558,238.877228 403.871368,241.162842 404.495361,243.365356 
	C407.441803,253.765045 416.359680,260.669525 427.618256,261.026733 
	C435.056396,261.262726 442.506714,261.114594 450.420288,261.631653 
	C450.927643,300.019379 450.966309,337.913971 451.004974,375.808533 
	C444.210602,375.825439 437.416199,375.844543 430.621826,375.858826 
	C415.208740,375.891235 407.390503,381.902496 403.285400,397.047607 
	C403.055542,344.131073 403.042267,290.881348 403.051819,237.130783 
z"/>
<path fill="#6F68C0" opacity="1.000000" stroke="none" 
	d="
M486.638000,212.654907 
	C478.315033,212.869919 469.620697,212.905350 460.457581,212.887634 
	C468.748077,212.714783 477.507355,212.595062 486.638000,212.654907 
z"/>
<path fill="#5A3EB7" opacity="1.000000" stroke="none" 
	d="
M451.472534,375.864227 
	C450.966309,337.913971 450.927643,300.019379 450.879028,261.671204 
	C463.016357,261.309784 475.425751,259.834930 487.257294,261.814178 
	C513.419189,266.190826 529.526306,284.176239 534.746277,311.975586 
	C534.094299,325.830475 533.384277,339.380768 524.868347,351.059113 
	C513.209045,367.048004 497.862366,375.789001 477.919769,375.957001 
	C469.260590,376.029938 460.600037,375.937317 451.472534,375.864227 
z"/>
</svg>